<?xml version="1.0" standalone="no"?>
<svg xmlns:xlink="http://www.w3.org/1999/xlink" id="wave" style="transform:rotate(0deg); transition: 0.3s" viewBox="0 0 1440 300" version="1.1" xmlns="http://www.w3.org/2000/svg"><defs><linearGradient id="sw-gradient-0" x1="0" x2="0" y1="1" y2="0"><stop stop-color="rgba(62, 163.294, 243, 1)" offset="0%"/><stop stop-color="rgba(221.168, 206.17, 173.017, 1)" offset="100%"/></linearGradient></defs><path style="transform:translate(0, 0px); opacity:1" fill="url(#sw-gradient-0)" d="M0,120L80,140C160,160,320,200,480,195C640,190,800,140,960,130C1120,120,1280,150,1440,170C1600,190,1760,200,1920,190C2080,180,2240,150,2400,135C2560,120,2720,120,2880,110C3040,100,3200,80,3360,65C3520,50,3680,40,3840,65C4000,90,4160,150,4320,165C4480,180,4640,150,4800,160C4960,170,5120,220,5280,225C5440,230,5600,190,5760,185C5920,180,6080,210,6240,220C6400,230,6560,220,6720,225C6880,230,7040,250,7200,235C7360,220,7520,170,7680,145C7840,120,8000,120,8160,125C8320,130,8480,140,8640,160C8800,180,8960,210,9120,195C9280,180,9440,120,9600,120C9760,120,9920,180,10080,185C10240,190,10400,140,10560,120C10720,100,10880,110,11040,100C11200,90,11360,60,11440,45L11520,30L11520,300L11440,300C11360,300,11200,300,11040,300C10880,300,10720,300,10560,300C10400,300,10240,300,10080,300C9920,300,9760,300,9600,300C9440,300,9280,300,9120,300C8960,300,8800,300,8640,300C8480,300,8320,300,8160,300C8000,300,7840,300,7680,300C7520,300,7360,300,7200,300C7040,300,6880,300,6720,300C6560,300,6400,300,6240,300C6080,300,5920,300,5760,300C5600,300,5440,300,5280,300C5120,300,4960,300,4800,300C4640,300,4480,300,4320,300C4160,300,4000,300,3840,300C3680,300,3520,300,3360,300C3200,300,3040,300,2880,300C2720,300,2560,300,2400,300C2240,300,2080,300,1920,300C1760,300,1600,300,1440,300C1280,300,1120,300,960,300C800,300,640,300,480,300C320,300,160,300,80,300L0,300Z"/></svg>